<svg xmlns="http://www.w3.org/2000/svg" viewBox="0 0 800 440" role="img" aria-labelledby="title"><title id="title">Sample publication image placeholder</title><rect width="800" height="440" fill="#ddf4f8"/><g fill="none" stroke="#168d97" stroke-width="4" opacity=".85"><path d="M-20 105c90-80 180 80 270 0s180-80 270 0 180 80 300 0"/><path d="M-20 190c90-80 180 80 270 0s180-80 270 0 180 80 300 0"/><path d="M-20 275c90-80 180 80 270 0s180-80 270 0 180 80 300 0"/></g><g fill="#075a63"><rect x="374" y="60" width="10" height="320"/><rect x="402" y="60" width="10" height="320"/><rect x="430" y="60" width="10" height="320"/></g><text x="400" y="410" fill="#075a63" font-family="Arial, sans-serif" font-size="18" font-weight="700" letter-spacing="2" text-anchor="middle">SAMPLE PUBLICATION IMAGE</text></svg>